<?xml version="1.0" standalone="no"?>
<!DOCTYPE svg PUBLIC "-//W3C//DTD SVG 20010904//EN"
 "http://www.w3.org/TR/2001/REC-SVG-20010904/DTD/svg10.dtd">
<svg version="1.0" xmlns="http://www.w3.org/2000/svg"
 width="2115.000000pt" height="2423.000000pt" viewBox="0 0 2115.000000 2423.000000"
 preserveAspectRatio="xMidYMid meet">
<metadata>
Created by potrace 1.16, written by Peter Selinger 2001-2019
</metadata>
<g transform="translate(0.000000,2423.000000) scale(0.100000,-0.100000)"
fill="#000000" stroke="none">
<path d="M14682 24200 c-9 -15 -23 -20 -57 -20 l-45 0 0 -49 c0 -49 -1 -51
-172 -258 -487 -591 -957 -1194 -1746 -2241 -171 -227 -313 -414 -316 -415 -2
-1 -504 627 -1115 1396 -1100 1384 -1111 1398 -1111 1442 l0 45 -40 0 c-22 0
-40 3 -40 8 -1 4 -11 19 -23 34 l-22 27 -44 -34 c-39 -31 -51 -35 -102 -35
l-59 0 0 -47 c0 -39 -5 -51 -27 -69 l-27 -22 27 -35 27 -36 0 -2983 c0 -1641
0 -2999 0 -3020 0 -36 0 -36 48 -40 46 -3 78 -27 1285 -981 l1237 -979 0
-1619 0 -1619 165 0 165 0 0 1624 0 1624 449 489 c393 428 519 557 1024 1048
l577 559 -21 22 c-22 24 -21 26 32 43 l37 12 6 272 c3 150 11 533 16 852 10
545 19 955 55 2535 8 355 19 902 25 1215 17 982 18 1004 42 1037 l20 29 -21
23 c-17 18 -21 35 -21 84 l0 62 -78 0 c-66 0 -82 3 -97 20 -10 11 -23 20 -29
20 -6 0 -17 -9 -24 -20z m-116 -957 c-3 -164 -11 -516 -16 -783 -6 -267 -19
-872 -30 -1345 -24 -1048 -37 -1678 -46 -2183 l-7 -384 -22 24 c-13 13 -442
551 -955 1196 l-931 1174 354 471 c385 513 827 1093 1062 1392 223 284 586
735 592 735 3 0 3 -134 -1 -297z m-3428 -1045 c544 -685 992 -1250 995 -1255
8 -12 -652 -889 -1157 -1538 -256 -330 -780 -984 -847 -1060 -5 -5 -9 1141 -9
2560 0 2183 2 2567 14 2555 7 -8 459 -576 1004 -1262z"/>
<path d="M6725 13248 c-13 -35 -145 -649 -215 -998 -91 -450 -138 -712 -280
-1550 -246 -1454 -372 -2050 -542 -2570 -70 -215 -175 -460 -197 -460 -11 0
-78 92 -132 182 -151 249 -291 574 -589 1373 -317 849 -438 1121 -618 1394
-49 76 -108 148 -171 210 -152 152 -278 213 -441 212 -111 0 -197 -27 -294
-92 -288 -192 -522 -675 -825 -1704 -104 -356 -525 -1904 -519 -1910 3 -3 216
-49 373 -80 39 -8 113 -23 165 -34 52 -11 98 -17 101 -13 4 4 43 142 89 307
438 1601 583 2069 760 2457 56 123 144 278 158 278 10 -1 64 -75 110 -151 114
-187 229 -452 466 -1069 92 -239 208 -534 258 -655 111 -271 303 -665 393
-805 225 -353 449 -510 725 -510 462 2 717 376 985 1450 131 525 210 935 420
2180 178 1055 280 1598 420 2226 30 136 52 251 48 254 -5 4 -55 14 -113 23
-477 74 -526 79 -535 55z"/>
<path d="M20624 10980 c3 -148 11 -433 17 -632 34 -1147 -75 -1851 -349 -2261
-62 -92 -193 -214 -278 -259 -300 -158 -782 -119 -1068 86 -232 166 -391 467
-445 847 -74 514 -192 1795 -208 2251 l-6 195 -135 7 c-74 3 -187 6 -250 6
l-115 0 7 -187 c20 -538 127 -1708 212 -2323 90 -644 384 -1094 867 -1325 128
-62 242 -97 407 -127 155 -28 443 -30 575 -5 269 53 475 157 669 338 l79 74
-6 -380 c-9 -522 -31 -819 -87 -1151 -129 -759 -415 -1265 -937 -1655 -459
-344 -1142 -599 -2018 -754 -1277 -225 -2735 -289 -4810 -210 -214 8 -786 33
-1270 55 -1762 80 -2162 92 -3015 92 -984 0 -1678 -33 -2415 -118 -1903 -217
-3129 -669 -4306 -1585 -412 -320 -805 -678 -1404 -1278 l-330 -331 60 -61
c33 -33 113 -110 178 -171 l117 -111 373 369 c653 647 1030 984 1457 1301 819
609 1684 979 2808 1202 1325 264 2805 339 5027 256 220 -9 792 -33 1270 -55
1537 -69 1754 -77 2486 -90 703 -12 1480 2 2009 35 654 41 1178 98 1730 190
1221 203 2072 560 2634 1105 527 511 807 1177 900 2140 42 430 52 904 37 1760
-11 639 -11 672 8 835 37 316 44 535 37 1115 -3 300 -9 662 -12 806 l-7 261
-105 7 c-58 3 -170 6 -250 6 l-145 0 7 -270z"/>
<path d="M16715 11173 c-332 -14 -990 -95 -1385 -169 -513 -97 -906 -368
-1147 -791 -51 -88 -126 -259 -158 -358 -4 -14 -17 10 -49 87 -185 462 -577
805 -1126 984 -360 118 -884 183 -1477 184 l-163 0 0 -248 0 -249 318 -6 c646
-13 1058 -85 1391 -242 492 -234 730 -675 708 -1315 -11 -319 -91 -570 -248
-780 -183 -244 -439 -389 -759 -429 -299 -37 -904 -65 -1272 -59 -268 5 -278
5 -278 -14 0 -10 -9 -118 -21 -239 -11 -122 -18 -224 -14 -227 14 -14 306 -23
585 -18 500 10 1003 46 1205 87 215 43 436 138 612 262 114 80 270 238 356
357 70 99 193 336 222 430 10 30 20 59 22 63 3 4 28 -50 57 -121 326 -802
1087 -1159 2355 -1104 272 12 512 29 520 37 6 7 -31 479 -38 486 -3 3 -80 -1
-171 -9 -221 -19 -827 -22 -975 -4 -506 60 -843 214 -1058 482 -276 346 -375
972 -227 1450 62 203 167 376 308 512 182 175 357 257 662 312 419 76 1124
156 1376 156 l64 0 0 113 c0 63 3 175 7 250 l6 137 -69 -2 c-38 -1 -100 -3
-139 -5z"/>
<path d="M9070 11080 c-376 -52 -710 -230 -953 -507 -373 -426 -570 -1078
-727 -2403 -25 -212 -89 -804 -87 -807 1 -1 148 -16 327 -35 l325 -34 7 26 c4
14 27 216 53 450 110 1028 215 1586 370 1970 150 374 366 587 673 662 104 25
295 31 354 10 136 -48 218 -305 249 -786 13 -204 7 -1081 -10 -1361 -18 -299
-22 -335 -35 -335 -14 0 -21 -87 -32 -415 -6 -178 -5 -195 16 -262 l22 -72 61
5 c89 6 448 24 496 24 38 0 41 2 51 38 23 79 62 569 92 1147 16 323 16 1137 0
1330 -28 332 -78 583 -150 760 -68 164 -118 240 -227 350 -89 90 -112 107
-205 153 -154 77 -229 94 -435 97 -93 2 -199 0 -235 -5z"/>
<path d="M13935 4180 c-131 -32 -223 -133 -241 -262 -7 -52 8 -116 37 -152 58
-74 207 -95 304 -44 63 33 110 81 101 104 -5 14 -14 10 -51 -25 -53 -49 -81
-61 -140 -61 -92 0 -135 75 -115 203 21 135 88 217 177 217 38 0 51 -6 78 -33
18 -18 38 -52 44 -75 7 -23 17 -42 24 -42 13 0 52 158 42 169 -3 3 -14 0 -24
-6 -13 -8 -31 -7 -71 3 -58 15 -117 17 -165 4z"/>
<path d="M11030 4170 c0 -5 6 -10 13 -10 32 0 61 -51 113 -204 23 -67 23 -70
8 -137 -17 -76 -33 -99 -69 -99 -13 0 -27 -4 -30 -10 -4 -6 42 -10 129 -10 84
0 136 4 136 10 0 6 -6 10 -13 10 -7 0 -21 6 -32 13 -17 13 -17 17 -1 87 12 55
25 85 54 119 75 93 188 204 222 220 l35 16 -89 3 c-53 2 -93 -1 -100 -8 -7 -7
-4 -10 11 -10 11 0 26 -6 32 -14 10 -12 -3 -32 -67 -108 -43 -51 -83 -92 -88
-92 -5 1 -24 46 -42 99 -35 104 -34 115 15 115 12 0 25 5 28 10 4 6 -42 10
-129 10 -84 0 -136 -4 -136 -10z"/>
<path d="M11677 3977 c-142 -216 -166 -245 -209 -254 -59 -12 -24 -23 70 -23
107 0 131 8 80 25 -40 13 -40 28 -4 90 l27 45 83 0 c94 0 91 2 102 -79 l6 -50
-36 -6 c-77 -15 -43 -25 83 -25 81 0 131 4 131 10 0 6 -6 10 -13 10 -33 0 -47
40 -83 248 l-38 212 -33 0 c-32 0 -38 -7 -166 -203z"/>
<path d="M12300 4172 c0 -4 14 -13 31 -19 30 -12 31 -15 27 -55 -3 -24 -20
-106 -38 -183 -27 -114 -38 -145 -61 -167 -15 -16 -37 -28 -48 -28 -12 0 -21
-4 -21 -10 0 -11 192 -14 203 -4 4 4 -8 14 -26 23 -20 10 -33 25 -35 40 -4 26
65 341 78 354 4 5 20 -87 36 -202 27 -197 30 -211 50 -211 16 0 50 47 154 210
73 116 134 209 136 207 2 -1 -17 -88 -41 -192 -45 -196 -54 -215 -102 -215
-13 0 -23 -4 -23 -10 0 -6 50 -10 130 -10 80 0 130 4 130 10 0 6 -8 10 -19 10
-45 0 -45 20 3 222 46 199 55 218 103 218 13 0 23 5 23 10 0 6 -44 10 -113 10
l-114 0 -12 -27 c-7 -16 -49 -86 -94 -157 -94 -150 -85 -154 -113 55 l-18 129
-113 0 c-62 0 -113 -4 -113 -8z"/>
<path d="M13127 3977 c-142 -216 -166 -245 -209 -254 -59 -12 -24 -23 70 -23
107 0 131 8 80 25 -40 13 -40 28 -4 90 l27 45 83 0 c94 0 91 2 102 -79 l6 -50
-36 -6 c-77 -15 -43 -25 83 -25 81 0 131 4 131 10 0 6 -6 10 -13 10 -33 0 -47
40 -83 248 l-38 212 -33 0 c-32 0 -38 -7 -166 -203z"/>
<path d="M14260 4172 c0 -4 14 -13 30 -19 17 -6 30 -19 30 -28 0 -40 -84 -371
-98 -387 -8 -10 -25 -18 -38 -18 -13 0 -26 -4 -29 -10 -4 -6 40 -10 124 -10
124 0 175 11 111 24 -39 7 -39 29 1 179 l10 37 105 0 c82 0 105 -3 101 -13 -2
-7 -12 -48 -22 -92 -19 -88 -36 -115 -71 -115 -13 0 -26 -4 -29 -10 -4 -6 40
-10 124 -10 124 0 175 11 111 24 -40 7 -39 20 13 236 45 186 41 178 112 207
12 5 -29 9 -104 11 -143 3 -173 -2 -123 -23 37 -16 38 -17 15 -112 l-17 -73
-103 0 c-65 0 -103 4 -103 10 0 6 7 41 16 78 17 68 41 102 75 102 10 0 21 5
24 10 4 6 -42 10 -129 10 -75 0 -136 -4 -136 -8z"/>
<path d="M14997 3977 c-142 -216 -166 -245 -209 -254 -59 -12 -24 -23 70 -23
107 0 131 8 80 25 -40 13 -40 28 -4 90 l27 45 83 0 c94 0 91 2 102 -79 l6 -50
-36 -6 c-20 -4 -39 -11 -42 -16 -6 -10 449 -13 459 -3 4 4 -8 14 -26 23 -20
10 -33 25 -35 40 -4 26 65 341 78 354 4 5 20 -87 36 -202 27 -197 30 -211 50
-211 16 0 50 47 154 210 73 116 134 209 136 207 2 -1 -17 -88 -41 -192 -45
-196 -54 -215 -102 -215 -13 0 -23 -4 -23 -10 0 -6 50 -10 130 -10 80 0 130 4
130 10 0 6 -8 10 -19 10 -45 0 -45 20 3 222 46 199 55 218 103 218 13 0 23 5
23 10 0 6 -44 10 -113 10 l-114 0 -12 -27 c-7 -16 -49 -86 -94 -157 -94 -150
-85 -154 -113 55 l-18 129 -113 0 c-62 0 -113 -4 -113 -8 0 -4 14 -13 31 -19
30 -12 31 -15 27 -55 -3 -24 -20 -106 -38 -183 -27 -114 -38 -145 -61 -167
-33 -33 -87 -38 -112 -10 -10 11 -29 94 -53 230 l-38 212 -33 0 c-32 0 -38 -7
-166 -203z"/>
<path d="M16180 4171 c0 -5 11 -12 24 -15 13 -3 26 -12 29 -20 3 -8 -14 -99
-39 -203 -46 -194 -55 -213 -101 -213 -13 0 -23 -4 -23 -10 0 -6 50 -10 130
-10 72 0 130 4 130 8 0 4 -14 13 -31 19 -33 13 -33 18 -5 132 l12 46 80 7
c141 13 224 75 224 169 0 43 -28 72 -85 88 -48 13 -345 15 -345 2z m280 -41
c34 -34 19 -121 -28 -164 -25 -22 -112 -35 -112 -17 0 7 10 55 22 107 l21 94
39 0 c25 0 45 -7 58 -20z"/>
<path d="M16680 4171 c0 -5 11 -12 24 -15 13 -3 26 -12 29 -20 3 -8 -14 -99
-39 -203 -46 -194 -55 -213 -101 -213 -13 0 -23 -4 -23 -10 0 -6 82 -10 225
-10 l224 0 21 71 c12 39 19 73 16 76 -3 3 -31 -22 -64 -56 l-58 -62 -75 3
c-73 3 -74 3 -77 32 -2 15 4 59 13 97 l17 69 43 0 c51 0 75 -19 75 -61 0 -17
5 -29 13 -29 12 0 62 188 53 198 -3 2 -22 -14 -44 -37 -35 -37 -44 -41 -87
-41 -44 0 -47 1 -41 23 3 12 13 55 23 95 l17 72 68 0 c73 0 99 -14 118 -65 15
-39 26 -30 43 35 l15 60 -214 0 c-119 0 -214 -4 -214 -9z"/>
</g>
</svg>
